<svg width="24" height="24" viewBox="0 0 24 24" fill="none" xmlns="http://www.w3.org/2000/svg">
<path d="M6.87137 21.0001H19.6929C20.4021 21.0001 20.9751 20.4271 20.9751 19.7179C20.9751 19.0088 20.4021 18.4358 19.6929 18.4358V15.7633C20.4382 15.4989 20.9751 14.7857 20.9751 13.9482V2.40883C20.9751 1.34704 20.1136 0.485596 19.0519 0.485596H6.87137C4.7478 0.485596 3.0249 2.20849 3.0249 4.33207V17.1536C3.0249 19.2772 4.7478 21.0001 6.87137 21.0001ZM5.58922 17.1536C5.58922 16.4444 6.16218 15.8715 6.87137 15.8715H17.1286V18.4358H6.87137C6.16218 18.4358 5.58922 17.8628 5.58922 17.1536ZM14.0074 4.46028C14.1116 4.35611 14.2758 4.33607 14.404 4.41621C15.6902 5.21756 16.5436 6.64396 16.5436 8.27069C16.5436 10.7789 14.5122 12.8103 12.004 12.8103C9.49579 12.8103 7.46036 10.7789 7.46036 8.27069C7.46036 6.64396 8.31781 5.21756 9.59996 4.41621C9.72417 4.33607 9.88845 4.35611 9.99663 4.46028C10.1048 4.56446 10.1208 4.72873 10.0447 4.85294C9.83636 5.19752 9.71616 5.6022 9.71616 6.03493C9.71616 6.63995 9.95256 7.18887 10.3372 7.60157C10.4374 7.70975 10.4534 7.87002 10.3733 7.99022C10.1849 8.28672 10.0768 8.63531 10.0768 9.01194C10.0768 9.87739 10.6497 10.6106 11.4391 10.851L11.4791 9.85736C11.1946 9.68106 11.0063 9.36854 11.0063 9.01194C11.0063 8.62729 11.2267 8.29073 11.5472 8.12645L11.6795 4.84894C11.6875 4.67665 11.8277 4.54042 12 4.54042C12.1723 4.54042 12.3125 4.67665 12.3205 4.84894L12.4528 8.12645C12.7733 8.29073 12.9937 8.62329 12.9937 9.01194C12.9937 9.36854 12.8054 9.68106 12.5209 9.85736L12.5609 10.851C13.3463 10.6106 13.9192 9.88541 13.9232 9.02396V8.99992C13.9192 8.62729 13.8151 8.28271 13.6267 7.99022C13.5506 7.86601 13.5626 7.70574 13.6628 7.60157C14.0474 7.19288 14.2838 6.64396 14.2838 6.03493C14.2838 5.6022 14.1636 5.19752 13.9553 4.85294C13.8792 4.72473 13.8992 4.56446 14.0034 4.46028H14.0074Z" fill="#7D47B9"/>
<rect x="5.36916" y="2.74683" width="13.2617" height="10.8842" fill="#7D47B9"/>
</svg>
