<svg width="28" height="26" viewBox="0 0 28 26" fill="none" xmlns="http://www.w3.org/2000/svg">
<path d="M14.6676 24.4833C14.2877 24.8239 13.7124 24.8239 13.3325 24.4833L12.0506 23.3341C9.7875 21.295 7.91651 19.5361 6.43764 18.0572C4.95878 16.5783 3.78241 15.2507 2.90853 14.0743C2.03465 12.898 1.42406 11.8168 1.07675 10.8309C0.729441 9.845 0.555786 8.83668 0.555786 7.80596C0.555786 5.69969 1.26161 3.94074 2.67326 2.52909C4.0849 1.11744 5.84386 0.411621 7.95012 0.411621C9.11529 0.411621 10.2244 0.658099 11.2776 1.15105C11.9747 1.47737 12.608 1.89206 13.1775 2.39512C13.6396 2.80333 14.3604 2.80333 14.8225 2.39512C15.392 1.89206 16.0254 1.47737 16.7225 1.15105C17.7756 0.658099 18.8848 0.411621 20.0499 0.411621C22.1562 0.411621 23.9152 1.11744 25.3268 2.52909C26.7385 3.94074 27.4443 5.69969 27.4443 7.80596C27.4443 8.83668 27.2706 9.845 26.9233 10.8309C26.576 11.8168 25.9654 12.898 25.0915 14.0743C24.2177 15.2507 23.0413 16.5783 21.5624 18.0572C20.0836 19.5361 18.2126 21.295 15.9495 23.3341L14.6676 24.4833ZM13.3337 20.8527C13.7122 21.1943 14.2879 21.1943 14.6664 20.8527C16.5194 19.1801 18.0675 17.7273 19.3105 16.4943C20.6998 15.1163 21.7977 13.9175 22.6044 12.898C23.411 11.8784 23.9712 10.971 24.2849 10.1755C24.5986 9.38005 24.7554 8.59021 24.7554 7.80596C24.7554 6.46153 24.3073 5.34118 23.411 4.4449C22.5147 3.54861 21.3944 3.10047 20.0499 3.10047C18.9968 3.10047 18.0221 3.39736 17.1258 3.99115C16.4451 4.44213 15.9259 4.98682 15.5683 5.62521C15.3632 5.99145 14.9981 6.25987 14.5783 6.25987H13.4218C13.002 6.25987 12.6369 5.99145 12.4317 5.62521C12.0741 4.98682 11.555 4.44213 10.8742 3.99115C9.97796 3.39736 9.00326 3.10047 7.95012 3.10047C6.6057 3.10047 5.48534 3.54861 4.58906 4.4449C3.69278 5.34118 3.24464 6.46153 3.24464 7.80596C3.24464 8.59021 3.40149 9.38005 3.71518 10.1755C4.02888 10.971 4.58906 11.8784 5.39572 12.898C6.20237 13.9175 7.30032 15.1163 8.68956 16.4943C9.93261 17.7273 11.4806 19.1801 13.3337 20.8527Z" fill="white"/>
<path d="M13.3337 20.8527C13.7122 21.1943 14.2879 21.1943 14.6664 20.8527C16.5194 19.1801 18.0675 17.7273 19.3105 16.4943C20.6998 15.1163 21.7977 13.9175 22.6044 12.898C23.411 11.8784 23.9712 10.971 24.2849 10.1755C24.5986 9.38005 24.7554 8.59021 24.7554 7.80596C24.7554 6.46153 24.3073 5.34118 23.411 4.4449C22.5147 3.54861 21.3944 3.10047 20.0499 3.10047C18.9968 3.10047 18.0221 3.39736 17.1258 3.99115C16.4451 4.44213 15.9259 4.98682 15.5683 5.62521C15.3632 5.99145 14.9981 6.25987 14.5783 6.25987H13.4218C13.002 6.25987 12.6369 5.99145 12.4317 5.62521C12.0741 4.98682 11.555 4.44213 10.8742 3.99115C9.97796 3.39736 9.00326 3.10047 7.95012 3.10047C6.6057 3.10047 5.48534 3.54861 4.58906 4.4449C3.69278 5.34118 3.24464 6.46153 3.24464 7.80596C3.24464 8.59021 3.40149 9.38005 3.71518 10.1755C4.02888 10.971 4.58906 11.8784 5.39572 12.898C6.20237 13.9175 7.30032 15.1163 8.68956 16.4943C9.93261 17.7273 11.4806 19.1801 13.3337 20.8527Z" fill="white"/>
</svg>
