<svg width="24" height="24" viewBox="0 0 24 24" fill="none" xmlns="http://www.w3.org/2000/svg">
<path d="M3 9L12 2L21 9V20C21 20.5304 20.7893 21.0391 20.4142 21.4142C20.0391 21.7893 19.5304 22 19 22H5C4.46957 22 3.96086 21.7893 3.58579 21.4142C3.21071 21.0391 3 20.5304 3 20V9Z" fill="#7D47B9"/>
<path d="M20 9.48824L12 3.26656L4 9.48824V20C4 20.2652 4.10543 20.5194 4.29297 20.707C4.48051 20.8945 4.73478 21 5 21H19C19.2652 21 19.5195 20.8945 19.707 20.707C19.8946 20.5194 20 20.2652 20 20V9.48824ZM22 20C22 20.7956 21.6837 21.5584 21.1211 22.121C20.5585 22.6837 19.7957 23 19 23H5C4.20435 23 3.44151 22.6837 2.87891 22.121C2.3163 21.5584 2 20.7956 2 20V8.99995C2 8.69151 2.14236 8.40035 2.38574 8.21089L11.3857 1.21089C11.7469 0.930028 12.2531 0.930028 12.6143 1.21089L21.6143 8.21089C21.8576 8.40035 22 8.69151 22 8.99995V20Z" fill="#7D47B9"/>
<path d="M9 23V14C9 13.4477 9.44772 13 10 13H14C14.5523 13 15 13.4477 15 14V23" fill="white"/>
</svg>
