<svg width="24" height="24" viewBox="0 0 24 24" fill="none" xmlns="http://www.w3.org/2000/svg">
<path d="M21 11.5C21.0034 12.8199 20.6951 14.1219 20.1 15.3C19.3944 16.7118 18.3098 17.8992 16.9674 18.7293C15.6251 19.5594 14.0782 19.9994 12.5 20C11.1801 20.0035 9.87812 19.6951 8.7 19.1L3 21L4.9 15.3C4.30493 14.1219 3.99656 12.8199 4 11.5C4.00061 9.92179 4.44061 8.37488 5.27072 7.03258C6.10083 5.69028 7.28825 4.6056 8.7 3.90003C9.87812 3.30496 11.1801 2.99659 12.5 3.00003H13C15.0843 3.11502 17.053 3.99479 18.5291 5.47089C20.0052 6.94699 20.885 8.91568 21 11V11.5Z" fill="#7D47B9"/>
<path d="M13 2L13.0547 2.00195C15.3848 2.1305 17.5862 3.11351 19.2363 4.76367C20.8865 6.41384 21.8695 8.61517 21.998 10.9453C21.999 10.9635 22 10.9818 22 11V11.4971L21.9971 11.7744C21.9599 13.1551 21.6163 14.511 20.9932 15.7461L20.9941 15.7471C20.2056 17.3248 18.9933 18.6523 17.4932 19.5801C15.9935 20.5075 14.2652 20.9981 12.5019 20.999L12.5029 21L12.501 20.999L12.5 21V20.999C11.1662 21.0021 9.8495 20.72 8.63573 20.1748L3.3164 21.9482C2.95706 22.068 2.56079 21.9749 2.29296 21.707C2.02514 21.4392 1.93197 21.0429 2.05175 20.6836L3.82421 15.3633C3.27904 14.1491 2.99651 12.8313 2.99999 11.4971C3.00115 9.73416 3.49272 8.00626 4.41991 6.50684C5.34765 5.00666 6.67515 3.79444 8.25292 3.00586C9.56989 2.34138 11.0249 1.99754 12.5 2.00098V2H13ZM12.4971 4C11.3348 3.99702 10.1878 4.26896 9.15038 4.79297L9.14745 4.79492C7.9018 5.41748 6.85353 6.37421 6.12109 7.55859C5.38875 8.74284 5.00061 10.1076 4.99999 11.5V11.5029C4.99701 12.6652 5.26895 13.8122 5.79296 14.8496C5.91295 15.0875 5.93287 15.3634 5.84863 15.6162L4.58007 19.4189L8.38378 18.1514L8.47948 18.125C8.70491 18.074 8.94221 18.102 9.15038 18.207C10.1878 18.731 11.3348 19.003 12.4971 19H12.5C13.8924 18.9994 15.2571 18.6112 16.4414 17.8789C17.6258 17.1465 18.5825 16.0982 19.2051 14.8525L19.207 14.8496C19.731 13.8122 20.003 12.6652 20 11.5029V11.0293C19.8928 9.20031 19.1182 7.47367 17.8223 6.17773C16.5261 4.88157 14.7991 4.10702 12.9697 4H12.4971Z" fill="#7D47B9"/>
</svg>
