<svg width="24" height="24" viewBox="0 0 24 24" fill="none" xmlns="http://www.w3.org/2000/svg">
<g clip-path="url(#clip0_200_124)">
<path d="M5 19L5 21C5 21.7956 5.3163 22.5585 5.87891 23.1211C6.44152 23.6837 7.20435 24 8 24L16 24C16.7956 24 17.5585 23.6837 18.1211 23.1211C18.6837 22.5585 19 21.7956 19 21L19 19C19 18.4477 19.4477 18 20 18C20.5523 18 21 18.4477 21 19L21 21C21 22.3261 20.4728 23.5975 19.5352 24.5352C18.5975 25.4728 17.3261 26 16 26L8 26C6.67392 26 5.40252 25.4728 4.46484 24.5352C3.52716 23.5975 3 22.3261 3 21L3 19C3 18.4477 3.44772 18 4 18C4.55228 18 5 18.4477 5 19Z" fill="#7D47B9"/>
<path d="M19 21V19C19 18.2044 18.6837 17.4415 18.1211 16.8789C17.5585 16.3163 16.7956 16 16 16H8C7.20435 16 6.44152 16.3163 5.87891 16.8789C5.3163 17.4415 5 18.2044 5 19V21C5 21.5523 4.55228 22 4 22C3.44772 22 3 21.5523 3 21V19C3 17.6739 3.52716 16.4025 4.46484 15.4648C5.40253 14.5272 6.67392 14 8 14H16C17.3261 14 18.5975 14.5272 19.5352 15.4648C20.4728 16.4025 21 17.6739 21 19V21C21 21.5523 20.5523 22 20 22C19.4477 22 19 21.5523 19 21Z" fill="#7D47B9"/>
<circle cx="12" cy="6.99988" r="3.82849" fill="#7D47B9"/>
<ellipse cx="12" cy="20" rx="8" ry="6" fill="#7D47B9"/>
<path d="M15 7C15 5.34315 13.6569 4 12 4C10.3431 4 9 5.34315 9 7C9 8.65685 10.3431 10 12 10C13.6569 10 15 8.65685 15 7ZM17 7C17 9.76142 14.7614 12 12 12C9.23858 12 7 9.76142 7 7C7 4.23858 9.23858 2 12 2C14.7614 2 17 4.23858 17 7Z" fill="#7D47B9"/>
</g>
<defs>
<clipPath id="clip0_200_124">
<rect width="24" height="24" fill="white"/>
</clipPath>
</defs>
</svg>
